<svg width="24" height="24" viewBox="0 0 24 24" fill="none" xmlns="http://www.w3.org/2000/svg">
  <!-- Database stack icon representing data virtualization -->
  <path d="M12 3C7.58 3 4 4.79 4 7V17C4 19.21 7.58 21 12 21C16.42 21 20 19.21 20 17V7C20 4.79 16.42 3 12 3Z" stroke="currentColor" stroke-width="1.5" stroke-linecap="round" stroke-linejoin="round"/>
  <path d="M4 7C4 9.21 7.58 11 12 11C16.42 11 20 9.21 20 7" stroke="currentColor" stroke-width="1.5" stroke-linecap="round" stroke-linejoin="round"/>
  <path d="M4 12C4 14.21 7.58 16 12 16C16.42 16 20 14.21 20 12" stroke="currentColor" stroke-width="1.5" stroke-linecap="round" stroke-linejoin="round"/>
  <!-- Connection/virtualization symbol -->
  <circle cx="12" cy="12" r="2" fill="currentColor" opacity="0.6"/>
  <path d="M8 9L6 7" stroke="currentColor" stroke-width="1.5" stroke-linecap="round"/>
  <path d="M16 9L18 7" stroke="currentColor" stroke-width="1.5" stroke-linecap="round"/>
</svg>
